# xmcd
#
# Track frame offsets: 
#        182
#        12445
#        29995
#        50470
#
# Disc length: 850 seconds
#
# Revision: 0
# Processed by: cddbd v1.4PL0 Copyright (c) Steve Scherf et al.
# Submitted via: ExactAudioCopy v0.90a11
#
DISCID=32035004
DTITLE=The Fargone Beauties - Dark Side Of The Moo (4 Track Bonus CD)
DYEAR=1900
DGENRE=
TTITLE0=Wild Thing (Bonanza)
TTITLE1=Hey Joe
TTITLE2=Riff-Fest
TTITLE3=Sad Tales Of The Brothers Oink
EXTD=
EXTT0=
EXTT1=
EXTT2=
EXTT3=
PLAYORDER=
